<?xml version="1.0" encoding="utf-8"?>
<!-- Generator: Adobe Illustrator 19.0.0, SVG Export Plug-In . SVG Version: 6.00 Build 0)  -->
<svg version="1.1" id="Layer_1" xmlns="http://www.w3.org/2000/svg" xmlns:xlink="http://www.w3.org/1999/xlink" x="0px" y="0px"
	 viewBox="0 0 32 32" style="enable-background:new 0 0 32 32;" xml:space="preserve">
<g id="XMLID_28_">
	<path id="XMLID_29_" d="M22.4,6.4h-4.3c-0.5,0-1,0.4-1,1v7.1L1.4,6.5c-0.3-0.1-0.6-0.1-0.9,0C0.2,6.8,0,7.1,0,7.4v17.2
		c0,0.3,0.2,0.6,0.5,0.8c0.2,0.1,0.3,0.1,0.5,0.1c0.1,0,0.3,0,0.4-0.1l15.8-7.9v7.1c0,0.5,0.4,1,1,1h4.3c0.5,0,1-0.4,1-1V7.4
		C23.4,6.9,23,6.4,22.4,6.4z"/>
	<path id="XMLID_31_" d="M31,6.4h-4.3c-0.5,0-1,0.4-1,1v17.2c0,0.5,0.4,1,1,1H31c0.5,0,1-0.4,1-1V7.4C32,6.9,31.6,6.4,31,6.4z"/>
</g>
</svg>
