<?xml version="1.0" encoding="utf-8"?>
<!-- Generator: Adobe Illustrator 19.0.0, SVG Export Plug-In . SVG Version: 6.00 Build 0)  -->
<svg version="1.1" id="Layer_1" xmlns="http://www.w3.org/2000/svg" xmlns:xlink="http://www.w3.org/1999/xlink" x="0px" y="0px"
	 viewBox="0 0 32 32" style="enable-background:new 0 0 32 32;" xml:space="preserve">
<g id="XMLID_41_">
	<path id="XMLID_42_" d="M16,20.6c2.6,0,4.6-2.1,4.6-4.6V4.6C20.6,2.1,18.6,0,16,0c-2.6,0-4.6,2.1-4.6,4.6V16
		C11.4,18.6,13.4,20.6,16,20.6z"/>
	<path id="XMLID_43_" d="M21.9,28.6h-4.2v-3.5c4.3-0.8,7.6-4.6,7.6-9.1c0-0.9-0.8-1.7-1.7-1.7c-0.9,0-1.7,0.8-1.7,1.7
		c0,3.3-2.6,5.9-5.9,5.9s-5.9-2.6-5.9-5.9c0-0.9-0.8-1.7-1.7-1.7S6.7,15.1,6.7,16c0,4.5,3.3,8.3,7.6,9.1v3.5h-4.2
		c-0.9,0-1.7,0.8-1.7,1.7c0,0.9,0.8,1.7,1.7,1.7h11.8c0.9,0,1.7-0.8,1.7-1.7C23.6,29.4,22.8,28.6,21.9,28.6z"/>
</g>
</svg>
