<?xml version="1.0" encoding="utf-8"?>
<!-- Generator: Adobe Illustrator 19.0.0, SVG Export Plug-In . SVG Version: 6.00 Build 0)  -->
<svg version="1.1" id="Layer_1" xmlns="http://www.w3.org/2000/svg" xmlns:xlink="http://www.w3.org/1999/xlink" x="0px" y="0px"
	 viewBox="0 0 32 32" style="enable-background:new 0 0 32 32;" xml:space="preserve">
<path id="XMLID_27_" d="M31.5,15.2L16.4,7.7c-0.3-0.1-0.6-0.1-0.8,0c-0.2,0.2-0.4,0.4-0.4,0.7v6.2l-13.9-7C1,7.5,0.7,7.6,0.4,7.7
	C0.2,7.9,0,8.1,0,8.4v15.1c0,0.3,0.2,0.6,0.4,0.7c0.1,0.1,0.3,0.1,0.4,0.1c0.1,0,0.3,0,0.4-0.1l13.9-7v6.2c0,0.3,0.2,0.6,0.4,0.7
	c0.1,0.1,0.3,0.1,0.4,0.1c0.1,0,0.3,0,0.4-0.1l15.1-7.6c0.3-0.1,0.5-0.4,0.5-0.8C32,15.7,31.8,15.4,31.5,15.2z"/>
</svg>
