<?xml version="1.0" encoding="utf-8"?>
<!-- Generator: Adobe Illustrator 19.0.0, SVG Export Plug-In . SVG Version: 6.00 Build 0)  -->
<svg version="1.1" id="Layer_1" xmlns="http://www.w3.org/2000/svg" xmlns:xlink="http://www.w3.org/1999/xlink" x="0px" y="0px"
	 viewBox="0 0 32 32" style="enable-background:new 0 0 32 32;" xml:space="preserve">
<g id="XMLID_11_">
	<g id="XMLID_13_">
		<path id="XMLID_7_" d="M29.5,27.5h-27C1.1,27.5,0,26.4,0,25s1.1-2.5,2.5-2.5h27c1.4,0,2.5,1.1,2.5,2.5S30.9,27.5,29.5,27.5z"/>
	</g>
	<g id="XMLID_14_">
		<path id="XMLID_6_" d="M29.5,18.5h-27C1.1,18.5,0,17.4,0,16s1.1-2.5,2.5-2.5h27c1.4,0,2.5,1.1,2.5,2.5S30.9,18.5,29.5,18.5z"/>
	</g>
	<g id="XMLID_15_">
		<path id="XMLID_5_" d="M29.5,9.5h-27C1.1,9.5,0,8.4,0,7s1.1-2.5,2.5-2.5h27C30.9,4.5,32,5.6,32,7S30.9,9.5,29.5,9.5z"/>
	</g>
</g>
</svg>
