<?xml version="1.0" encoding="utf-8"?>
<!-- Generator: Adobe Illustrator 19.0.0, SVG Export Plug-In . SVG Version: 6.00 Build 0)  -->
<svg version="1.1" id="Layer_1" xmlns="http://www.w3.org/2000/svg" xmlns:xlink="http://www.w3.org/1999/xlink" x="0px" y="0px"
	 viewBox="0 0 32 32" style="enable-background:new 0 0 32 32;" xml:space="preserve">
<path id="XMLID_12_" d="M22.1,7.4H8.2V5.6c0-0.8-0.9-1.2-1.5-0.7L0.4,9.6c-0.5,0.4-0.5,1.1,0,1.5l6.3,4.7c0.6,0.5,1.5,0,1.5-0.7
	v-1.8h13.9c2.3,0,4.1,1.8,4.1,4.1s-1.8,4.1-4.1,4.1H8.2c-1.6,0-2.9,1.3-2.9,2.9c0,1.6,1.3,2.9,2.9,2.9h13.9c5.5,0,9.9-4.5,9.9-9.9
	S27.5,7.4,22.1,7.4z"/>
</svg>
