<?xml version="1.0" encoding="utf-8"?>
<!-- Generator: Adobe Illustrator 19.0.0, SVG Export Plug-In . SVG Version: 6.00 Build 0)  -->
<svg version="1.1" id="Layer_1" xmlns="http://www.w3.org/2000/svg" xmlns:xlink="http://www.w3.org/1999/xlink" x="0px" y="0px"
	 viewBox="0 0 32 32" style="enable-background:new 0 0 32 32;" xml:space="preserve">
<path id="XMLID_27_" d="M0.5,15.2l15.1-7.6c0.3-0.1,0.6-0.1,0.8,0c0.2,0.2,0.4,0.4,0.4,0.7v6.2l13.9-7c0.3-0.1,0.6-0.1,0.8,0
	C31.8,7.9,32,8.1,32,8.4v15.1c0,0.3-0.2,0.6-0.4,0.7c-0.1,0.1-0.3,0.1-0.4,0.1c-0.1,0-0.3,0-0.4-0.1l-13.9-7v6.2
	c0,0.3-0.2,0.6-0.4,0.7c-0.1,0.1-0.3,0.1-0.4,0.1c-0.1,0-0.3,0-0.4-0.1L0.5,16.8C0.2,16.6,0,16.3,0,16C0,15.7,0.2,15.4,0.5,15.2z"/>
</svg>
