<?xml version="1.0" encoding="utf-8"?>
<!-- Generator: Adobe Illustrator 19.0.0, SVG Export Plug-In . SVG Version: 6.00 Build 0)  -->
<svg version="1.1" id="Layer_1" xmlns="http://www.w3.org/2000/svg" xmlns:xlink="http://www.w3.org/1999/xlink" x="0px" y="0px"
	 viewBox="0 0 32 32" style="enable-background:new 0 0 32 32;" xml:space="preserve">
<path id="XMLID_35_" d="M31.3,16L16.9,5.5c0,0,0,0,0,0c0,0,0,0,0,0c0,0-0.1,0-0.1-0.1c0,0-0.1,0-0.1,0c0,0-0.1,0-0.1,0c0,0,0,0,0,0
	c0,0-0.1,0-0.1,0c0,0-0.1,0-0.1,0c0,0-0.1,0-0.1,0c0,0,0,0-0.1,0c0,0,0,0,0,0c0,0,0,0-0.1,0c0,0-0.1,0-0.1,0c0,0,0,0-0.1,0
	c0,0-0.1,0-0.1,0c0,0-0.1,0-0.1,0c0,0,0,0,0,0c0,0,0,0-0.1,0c0,0-0.1,0-0.1,0c0,0-0.1,0-0.1,0c0,0-0.1,0-0.1,0c0,0-0.1,0-0.1,0
	c0,0-0.1,0-0.1,0c0,0-0.1,0-0.1,0.1c0,0,0,0,0,0c0,0,0,0,0,0L0.7,16c-0.7,0.5-0.9,1.5-0.3,2.2c0.3,0.4,0.8,0.7,1.3,0.7
	c0.3,0,0.7-0.1,0.9-0.3l1.3-0.9v7.6c0,0.9,0.7,1.6,1.6,1.6h21.2c0.9,0,1.6-0.7,1.6-1.6v-7.6l1.3,0.9c0.3,0.2,0.6,0.3,0.9,0.3
	c0.5,0,1-0.2,1.3-0.7C32.2,17.6,32.1,16.6,31.3,16z M25,23.7H7v-8.2l9-6.7l9,6.7V23.7z"/>
</svg>
