<?xml version="1.0" encoding="utf-8"?>
<!-- Generator: Adobe Illustrator 19.0.0, SVG Export Plug-In . SVG Version: 6.00 Build 0)  -->
<svg version="1.1" id="Layer_1" xmlns="http://www.w3.org/2000/svg" xmlns:xlink="http://www.w3.org/1999/xlink" x="0px" y="0px"
	 viewBox="0 0 32 32" style="enable-background:new 0 0 32 32;" xml:space="preserve">
<style type="text/css">
	.st0{fill:#FFFFFF;}
</style>
<polygon id="XMLID_2_" class="st0" points="31.5,20.4 31.3,23.1 29.2,25 26,25.7 4.4,25.7 1.8,24.5 0.6,22.1 0.6,19.3 30.4,19.1 "/>
<g id="XMLID_61_">
	<path id="XMLID_62_" d="M32,10c0-2.2-1.8-4-4-4H4c-2.2,0-4,1.8-4,4l0.1,11.4c0,2.5,2,4.5,4.5,4.5h22.8c2.5,0,4.6-2.3,4.6-4.8V10z
		 M30.9,21.4c0,1.9-1.6,3.5-3.5,3.5H4.6c-1.9,0-3.5-1.6-3.5-3.5v-1c0.7,0.8,1.8,1.3,2.9,1.3H28c1.2,0,2.2-0.5,2.9-1.3V21.4z"/>
	<g id="XMLID_94_">
		<path id="XMLID_137_" class="st0" d="M14.8,13.7c-0.1-0.1-0.1-0.1-0.2-0.2c0.5-0.1,0.9-0.3,1.2-0.6c0.4-0.4,0.6-0.9,0.6-1.4
			c0-0.4-0.1-0.8-0.3-1.2c-0.2-0.4-0.5-0.6-0.9-0.8c-0.4-0.1-0.9-0.2-1.5-0.2h-3.4V17h1.3v-3.2h0.9c0.3,0,0.4,0,0.5,0
			c0.1,0,0.3,0.1,0.4,0.2c0.1,0.1,0.3,0.2,0.4,0.4c0.2,0.2,0.4,0.6,0.7,1l1,1.6H17l-1.4-2.3C15.3,14.3,15.1,14,14.8,13.7z
			 M14.8,12.1c-0.1,0.2-0.3,0.3-0.5,0.4c-0.2,0.1-0.6,0.1-1,0.1h-1.9v-2.1h2.1c0.5,0,0.9,0.1,1.1,0.3c0.2,0.2,0.3,0.4,0.3,0.7
			C15,11.7,14.9,11.9,14.8,12.1z"/>
		<path id="XMLID_138_" class="st0" d="M20,9.3L20,9.3c-0.2,0.4-0.4,0.7-0.8,1c-0.4,0.3-0.8,0.6-1.3,0.8l-0.1,0v1.2l0.2-0.1
			c0.3-0.1,0.6-0.3,1-0.5c0.2-0.1,0.4-0.3,0.6-0.4V17h1.2V9.3H20z"/>
	</g>
</g>
</svg>
