<?xml version="1.0" encoding="utf-8"?>
<!-- Generator: Adobe Illustrator 19.0.0, SVG Export Plug-In . SVG Version: 6.00 Build 0)  -->
<svg version="1.1" id="Layer_1" xmlns="http://www.w3.org/2000/svg" xmlns:xlink="http://www.w3.org/1999/xlink" x="0px" y="0px"
	 viewBox="0 0 32 32" style="enable-background:new 0 0 32 32;" xml:space="preserve">
<style type="text/css">
	.st0{fill:#010101;}
	.st1{fill:#231F20;}
</style>
<g id="XMLID_142_">
	<g id="XMLID_11_">
		<g id="XMLID_13_">
			<path id="XMLID_7_" class="st0" d="M22.5,21.5h-13c-0.7,0-1.2-0.5-1.2-1.2c0-0.7,0.5-1.2,1.2-1.2h13c0.7,0,1.2,0.5,1.2,1.2
				C23.7,21,23.1,21.5,22.5,21.5z"/>
		</g>
		<g id="XMLID_14_">
			<path id="XMLID_6_" class="st0" d="M22.5,17.2h-13c-0.7,0-1.2-0.5-1.2-1.2s0.5-1.2,1.2-1.2h13c0.7,0,1.2,0.5,1.2,1.2
				S23.1,17.2,22.5,17.2z"/>
		</g>
		<g id="XMLID_15_">
			<path id="XMLID_5_" class="st0" d="M22.5,12.9h-13c-0.7,0-1.2-0.5-1.2-1.2c0-0.7,0.5-1.2,1.2-1.2h13c0.7,0,1.2,0.5,1.2,1.2
				C23.7,12.3,23.1,12.9,22.5,12.9z"/>
		</g>
	</g>
	<path id="XMLID_100_" class="st1" d="M16,0C7.2,0,0,7.2,0,16c0,8.8,7.2,16,16,16s16-7.2,16-16C32,7.2,24.8,0,16,0z M16,30
		C8.3,30,2,23.7,2,16C2,8.3,8.3,2,16,2s14,6.3,14,14C30,23.7,23.7,30,16,30z"/>
</g>
</svg>
