<?xml version="1.0" encoding="utf-8"?>
<!-- Generator: Adobe Illustrator 19.0.0, SVG Export Plug-In . SVG Version: 6.00 Build 0)  -->
<svg version="1.1" id="Layer_1" xmlns="http://www.w3.org/2000/svg" xmlns:xlink="http://www.w3.org/1999/xlink" x="0px" y="0px"
	 viewBox="0 0 32 32" style="enable-background:new 0 0 32 32;" xml:space="preserve">
<style type="text/css">
	.st0{fill:#010101;}
	.st1{fill:#231F20;}
</style>
<g id="XMLID_31_">
	<path id="XMLID_12_" class="st0" d="M19.3,11.3h-7.6v-1c0-0.4-0.5-0.6-0.8-0.4l-3.5,2.6c-0.3,0.2-0.3,0.6,0,0.8l3.5,2.6
		c0.3,0.2,0.8,0,0.8-0.4v-1h7.6c1.2,0,2.2,1,2.2,2.2s-1,2.2-2.2,2.2h-7.6c-0.9,0-1.6,0.7-1.6,1.6c0,0.9,0.7,1.6,1.6,1.6h7.6
		c3,0,5.4-2.4,5.4-5.4S22.3,11.3,19.3,11.3z"/>
	<path id="XMLID_34_" class="st1" d="M16,0C7.2,0,0,7.2,0,16c0,8.8,7.2,16,16,16c8.8,0,16-7.2,16-16C32,7.2,24.8,0,16,0z M30,16
		c0,7.7-6.3,14-14,14C8.3,30,2,23.7,2,16C2,8.3,8.3,2,16,2C23.7,2,30,8.3,30,16z"/>
</g>
</svg>
