<?xml version="1.0" encoding="utf-8"?>
<!-- Generator: Adobe Illustrator 19.0.0, SVG Export Plug-In . SVG Version: 6.00 Build 0)  -->
<svg version="1.1" id="Layer_1" xmlns="http://www.w3.org/2000/svg" xmlns:xlink="http://www.w3.org/1999/xlink" x="0px" y="0px"
	 viewBox="0 0 32 32" style="enable-background:new 0 0 32 32;" xml:space="preserve">
<style type="text/css">
	.st0{fill:#010101;}
	.st1{fill:#231F20;}
</style>
<g id="XMLID_58_">
	<g id="XMLID_41_">
		<path id="XMLID_42_" class="st0" d="M16,18.7c1.6,0,3-1.3,3-3V8.4c0-1.6-1.3-3-3-3c-1.6,0-3,1.3-3,3v7.3
			C13.1,17.4,14.4,18.7,16,18.7z"/>
		<path id="XMLID_43_" class="st0" d="M19.8,23.8h-2.7v-2.3c2.8-0.5,4.9-2.9,4.9-5.9c0-0.6-0.5-1.1-1.1-1.1c-0.6,0-1.1,0.5-1.1,1.1
			c0,2.1-1.7,3.8-3.8,3.8s-3.8-1.7-3.8-3.8c0-0.6-0.5-1.1-1.1-1.1c-0.6,0-1.1,0.5-1.1,1.1c0,2.9,2.1,5.3,4.9,5.9v2.3h-2.7
			c-0.6,0-1.1,0.5-1.1,1.1c0,0.6,0.5,1.1,1.1,1.1h7.6c0.6,0,1.1-0.5,1.1-1.1C20.9,24.3,20.4,23.8,19.8,23.8z"/>
	</g>
	<path id="XMLID_27_" class="st1" d="M16,0C7.2,0,0,7.2,0,16c0,8.8,7.2,16,16,16s16-7.2,16-16C32,7.2,24.8,0,16,0z M30,16
		c0,7.7-6.3,14-14,14C8.3,30,2,23.7,2,16C2,8.3,8.3,2,16,2C23.7,2,30,8.3,30,16z"/>
</g>
</svg>
