<?xml version="1.0" encoding="utf-8"?>
<!-- Generator: Adobe Illustrator 19.0.0, SVG Export Plug-In . SVG Version: 6.00 Build 0)  -->
<svg version="1.1" id="Layer_1" xmlns="http://www.w3.org/2000/svg" xmlns:xlink="http://www.w3.org/1999/xlink" x="0px" y="0px"
	 viewBox="0 0 32 32" style="enable-background:new 0 0 32 32;" xml:space="preserve">
<style type="text/css">
	.st0{fill:#231F20;}
</style>
<g id="XMLID_1_">
	<path id="XMLID_100_" class="st0" d="M16,0C7.2,0,0,7.2,0,16c0,8.8,7.2,16,16,16s16-7.2,16-16C32,7.2,24.8,0,16,0z M16,30
		C8.3,30,2,23.7,2,16C2,8.3,8.3,2,16,2s14,6.3,14,14C30,23.7,23.7,30,16,30z"/>
	<g id="XMLID_75_">
		<path id="XMLID_114_" d="M23.2,17c-0.6-0.7-1.5-1.1-2.7-1.4c0.9-0.4,1.6-0.8,2-1.4c0.4-0.6,0.7-1.2,0.7-1.9c0-0.7-0.3-1.4-0.8-2.1
			S21.3,9,20.4,8.7c-0.9-0.3-2.1-0.5-3.6-0.5H9.5v15.7h7.4c1.2,0,2.3-0.1,3.1-0.3c0.9-0.2,1.6-0.4,2.1-0.8c0.6-0.3,1-0.8,1.4-1.5
			c0.4-0.6,0.6-1.3,0.6-2.1C24.2,18.4,23.9,17.6,23.2,17z M12.1,10H16c1.4,0,2.4,0.1,2.9,0.2c0.6,0.1,1,0.4,1.3,0.8
			c0.3,0.4,0.5,0.9,0.5,1.4c0,0.6-0.2,1-0.5,1.4c-0.3,0.4-0.8,0.6-1.5,0.8c-0.5,0.1-1.3,0.2-2.4,0.2h-4.2V10z M21.1,20.7
			c-0.3,0.4-0.6,0.7-1,0.9c-0.4,0.2-0.9,0.3-1.5,0.4c-0.3,0-0.9,0.1-1.7,0.1h-4.8v-5.4h4.5c1.2,0,2.2,0.1,2.8,0.3
			c0.7,0.2,1.2,0.5,1.5,0.9c0.4,0.4,0.6,0.9,0.6,1.5C21.5,19.8,21.4,20.3,21.1,20.7z"/>
	</g>
</g>
</svg>
