<?xml version="1.0" encoding="utf-8"?>
<!-- Generator: Adobe Illustrator 19.0.0, SVG Export Plug-In . SVG Version: 6.00 Build 0)  -->
<svg version="1.1" id="Layer_1" xmlns="http://www.w3.org/2000/svg" xmlns:xlink="http://www.w3.org/1999/xlink" x="0px" y="0px"
	 viewBox="0 0 32 32" style="enable-background:new 0 0 32 32;" xml:space="preserve">
<style type="text/css">
	.st0{fill:#FFFFFF;}
	.st1{fill:#231F20;}
</style>
<g id="XMLID_205_">
	<path id="XMLID_206_" class="st0" d="M12.9,12c0.6-0.1,1.5-0.2,2.5-0.2c1.2,0,2.1,0.2,2.7,0.6c0.5,0.4,0.8,1,0.8,1.7
		c0,1.1-0.7,1.8-1.5,2v0c0.6,0.2,0.9,0.8,1.1,1.5c0.3,0.9,0.5,2,0.7,2.3h-1.9c-0.1-0.2-0.3-0.9-0.6-1.9c-0.2-1-0.6-1.3-1.3-1.3h-0.6
		v3.2h-1.9V12z M14.7,15.6h0.7c0.9,0,1.5-0.5,1.5-1.2c0-0.8-0.5-1.1-1.4-1.2c-0.5,0-0.7,0-0.8,0.1V15.6z"/>
</g>
<g id="XMLID_7_">
	<g id="XMLID_51_">
		<circle id="XMLID_93_" class="st1" cx="16" cy="16" r="16"/>
		<circle id="XMLID_88_" cx="16" cy="16" r="14.5"/>
		<circle id="XMLID_73_" class="st1" cx="16" cy="16" r="12"/>
		<circle id="XMLID_57_" cx="16" cy="16" r="10.7"/>
	</g>
	<path id="XMLID_43_" class="st0" d="M25,15.6l-2.4-2.2c-0.2-0.2-0.5,0-0.5,0.2v4.9c0,0.3,0.3,0.4,0.5,0.2L25,16
		C25.1,15.9,25.1,15.7,25,15.6z"/>
</g>
<g id="XMLID_209_">
	<path id="XMLID_210_" class="st0" d="M12.9,12c0.6-0.1,1.5-0.2,2.5-0.2c1.2,0,2.1,0.2,2.7,0.6c0.5,0.4,0.8,1,0.8,1.7
		c0,1.1-0.7,1.8-1.5,2v0c0.6,0.2,0.9,0.8,1.1,1.5c0.3,0.9,0.5,2,0.7,2.3h-1.9c-0.1-0.2-0.3-0.9-0.6-1.9c-0.2-1-0.6-1.3-1.3-1.3h-0.6
		v3.2h-1.9V12z M14.7,15.6h0.7c0.9,0,1.5-0.5,1.5-1.2c0-0.8-0.5-1.1-1.4-1.2c-0.5,0-0.7,0-0.8,0.1V15.6z"/>
</g>
</svg>
