<?xml version="1.0" encoding="utf-8"?>
<!-- Generator: Adobe Illustrator 19.0.0, SVG Export Plug-In . SVG Version: 6.00 Build 0)  -->
<svg version="1.1" id="Layer_1" xmlns="http://www.w3.org/2000/svg" xmlns:xlink="http://www.w3.org/1999/xlink" x="0px" y="0px"
	 viewBox="0 0 32 32" style="enable-background:new 0 0 32 32;" xml:space="preserve">
<style type="text/css">
	.st0{fill:#FFFFFF;}
	.st1{fill:#231F20;}
</style>
<path id="XMLID_43_" class="st0" d="M16.2,25l2.4-2.4c0.2-0.2,0.1-0.5-0.2-0.5h-4.7c-0.3,0-0.4,0.3-0.2,0.5l2.4,2.4
	C15.9,25.1,16.1,25.1,16.2,25z"/>
<g id="XMLID_90_">
	<g id="XMLID_46_">
		<circle id="XMLID_50_" class="st1" cx="16" cy="16" r="16"/>
		<circle id="XMLID_49_" cx="16" cy="16" r="14.5"/>
		<circle id="XMLID_48_" class="st1" cx="16" cy="16" r="12"/>
		<circle id="XMLID_47_" cx="16" cy="16" r="10.7"/>
	</g>
	<path id="XMLID_45_" class="st0" d="M7,16.4l2.4,2.2c0.2,0.2,0.5,0,0.5-0.2v-4.9c0-0.3-0.3-0.4-0.5-0.2L7,16
		C6.9,16.1,6.9,16.3,7,16.4z"/>
</g>
<g id="XMLID_157_">
	<path id="XMLID_173_" class="st0" d="M14.3,11.9h1.9v6.7h3.3v1.6h-5.2V11.9z"/>
</g>
</svg>
