<?xml version="1.0" encoding="utf-8"?>
<!-- Generator: Adobe Illustrator 19.0.0, SVG Export Plug-In . SVG Version: 6.00 Build 0)  -->
<svg version="1.1" id="Layer_1" xmlns="http://www.w3.org/2000/svg" xmlns:xlink="http://www.w3.org/1999/xlink" x="0px" y="0px"
	 viewBox="0 0 32 32" style="enable-background:new 0 0 32 32;" xml:space="preserve">
<style type="text/css">
	.st0{fill:#FFFFFF;}
</style>
<g id="XMLID_4_">
	<polygon id="XMLID_2_" class="st0" points="0.6,18.6 0.6,22.5 3.7,25.5 27.9,25.5 30.9,24.4 31.3,19.4 	"/>
	<g id="XMLID_1_">
		<path id="XMLID_118_" d="M32,10c0-2.2-1.8-4-4-4H4c-2.2,0-4,1.8-4,4v11.5C0,24.1,2.1,26,4.6,26h22.8c2.5,0,4.6-2,4.6-4.5L32,10z
			 M30.9,21.4c0,1.9-1.6,3.5-3.5,3.5H4.6c-1.9,0-3.5-1.6-3.5-3.5v-1c0.7,0.8,1.8,1.3,2.9,1.3h24c1.2,0,2.2-0.5,2.9-1.3V21.4z"/>
		<g id="XMLID_3_">
			<polygon id="XMLID_14_" class="st0" points="12.2,9.3 10.9,9.3 10.9,17 15.8,17 15.8,15.8 12.2,15.8 			"/>
			<path id="XMLID_15_" class="st0" d="M19.1,9.3L19.1,9.3c-0.2,0.4-0.4,0.7-0.8,1c-0.4,0.3-0.8,0.6-1.3,0.8l-0.1,0v1.2l0.2-0.1
				c0.3-0.1,0.6-0.3,1-0.5c0.2-0.1,0.4-0.3,0.6-0.4V17H20V9.3H19.1z"/>
		</g>
	</g>
</g>
</svg>
