<?xml version="1.0" encoding="utf-8"?>
<!-- Generator: Adobe Illustrator 19.0.0, SVG Export Plug-In . SVG Version: 6.00 Build 0)  -->
<svg version="1.1" id="Layer_1" xmlns="http://www.w3.org/2000/svg" xmlns:xlink="http://www.w3.org/1999/xlink" x="0px" y="0px"
	 viewBox="0 0 32 32" style="enable-background:new 0 0 32 32;" xml:space="preserve">
<style type="text/css">
	.st0{fill:#231F20;}
	.st1{fill:#FFFFFF;}
</style>
<g id="XMLID_2_">
	<g id="XMLID_1_">
		<g id="XMLID_33_">
			<circle id="XMLID_42_" class="st0" cx="16" cy="16" r="16"/>
			<circle id="XMLID_41_" cx="16" cy="16" r="14.5"/>
			<circle id="XMLID_35_" class="st0" cx="16" cy="16" r="12"/>
			<circle id="XMLID_34_" cx="16" cy="16" r="10.7"/>
		</g>
		<path id="XMLID_32_" class="st1" d="M15.6,6.4l-2.2,2.4c-0.2,0.2,0,0.5,0.2,0.5h4.9c0.3,0,0.4-0.3,0.2-0.5L16,6.4
			C15.9,6.3,15.7,6.3,15.6,6.4z"/>
		<path id="XMLID_31_" class="st1" d="M15.6,25l-2.2-2.4c-0.2-0.2,0-0.5,0.2-0.5h4.9c0.3,0,0.4,0.3,0.2,0.5L16,25
			C15.9,25.1,15.7,25.1,15.6,25z"/>
	</g>
	<path id="XMLID_202_" class="st1" d="M12.9,11.6c0.6-0.1,1.5-0.2,2.5-0.2c1.2,0,2.1,0.2,2.7,0.6c0.5,0.4,0.8,1,0.8,1.7
		c0,1.1-0.7,1.8-1.5,2v0c0.6,0.2,0.9,0.8,1.1,1.5c0.3,0.9,0.5,2,0.7,2.3h-1.9c-0.1-0.2-0.3-0.9-0.6-1.9c-0.2-1-0.6-1.3-1.3-1.3h-0.6
		v3.2h-1.9V11.6z M14.7,15.2h0.7c0.9,0,1.5-0.5,1.5-1.2c0-0.8-0.5-1.1-1.4-1.2c-0.5,0-0.7,0-0.8,0.1V15.2z"/>
</g>
</svg>
