<?xml version="1.0" encoding="utf-8"?>
<!-- Generator: Adobe Illustrator 19.0.0, SVG Export Plug-In . SVG Version: 6.00 Build 0)  -->
<svg version="1.1" id="Layer_1" xmlns="http://www.w3.org/2000/svg" xmlns:xlink="http://www.w3.org/1999/xlink" x="0px" y="0px"
	 viewBox="0 0 32 32" style="enable-background:new 0 0 32 32;" xml:space="preserve">
<style type="text/css">
	.st0{fill:#231F20;}
</style>
<g id="XMLID_147_">
	<g id="XMLID_58_">
		<path id="XMLID_149_" class="st0" d="M24.9,23.1H7.1C3.2,23.1,0,19.9,0,16c0-3.9,3.2-7.1,7.1-7.1h17.9c3.9,0,7.1,3.2,7.1,7.1
			C32,19.9,28.8,23.1,24.9,23.1z M7.1,10.5c-3,0-5.5,2.5-5.5,5.5s2.5,5.5,5.5,5.5h17.9c3,0,5.5-2.5,5.5-5.5s-2.5-5.5-5.5-5.5H7.1z"
			/>
	</g>
	<path id="XMLID_148_" class="st0" d="M12.8,13.5v5.1c0,0.6,0.6,0.9,1.1,0.7l4.9-2.5c0.5-0.3,0.5-1.1,0-1.4l-4.9-2.5
		C13.4,12.5,12.8,12.9,12.8,13.5z"/>
</g>
</svg>
