<?xml version="1.0" encoding="utf-8"?>
<!-- Generator: Adobe Illustrator 19.0.0, SVG Export Plug-In . SVG Version: 6.00 Build 0)  -->
<svg version="1.1" id="Layer_1" xmlns="http://www.w3.org/2000/svg" xmlns:xlink="http://www.w3.org/1999/xlink" x="0px" y="0px"
	 viewBox="0 0 32 32" style="enable-background:new 0 0 32 32;" xml:space="preserve">
<style type="text/css">
	.st0{fill:#231F20;}
</style>
<g id="XMLID_79_">
	<path id="XMLID_98_" class="st0" d="M16,0C7.2,0,0,7.2,0,16c0,8.8,7.2,16,16,16s16-7.2,16-16C32,7.2,24.8,0,16,0z M30,16
		c0,7.7-6.3,14-14,14C8.3,30,2,23.7,2,16C2,8.3,8.3,2,16,2C23.7,2,30,8.3,30,16z"/>
	<g id="XMLID_78_">
		<path id="XMLID_80_" d="M8.2,23.9l6.6-8.3L8.9,8h2.7l3.1,4.1c0.6,0.8,1.1,1.5,1.4,1.9c0.4-0.6,0.8-1.2,1.4-1.8L20.9,8h2.5l-6,7.5
			l6.5,8.4H21l-4.3-5.7c-0.2-0.3-0.5-0.7-0.7-1.1c-0.4,0.6-0.7,1-0.8,1.2l-4.3,5.5H8.2z"/>
	</g>
</g>
</svg>
