<?xml version="1.0" encoding="utf-8"?>
<!-- Generator: Adobe Illustrator 19.0.0, SVG Export Plug-In . SVG Version: 6.00 Build 0)  -->
<svg version="1.1" id="Layer_1" xmlns="http://www.w3.org/2000/svg" xmlns:xlink="http://www.w3.org/1999/xlink" x="0px" y="0px"
	 viewBox="0 0 32 32" style="enable-background:new 0 0 32 32;" xml:space="preserve">
<style type="text/css">
	.st0{fill:#231F20;}
	.st1{fill:#FFFFFF;}
</style>
<g id="XMLID_19_">
	<g id="XMLID_22_">
		<circle id="XMLID_26_" class="st0" cx="16" cy="16" r="16"/>
		<circle id="XMLID_25_" cx="16" cy="16" r="14.5"/>
		<circle id="XMLID_24_" class="st0" cx="16" cy="16" r="12"/>
		<circle id="XMLID_23_" cx="16" cy="16" r="10.7"/>
	</g>
	<path id="XMLID_21_" class="st1" d="M25.6,15.9l-2.4-2.2c-0.2-0.2-0.5,0-0.5,0.2v4.9c0,0.3,0.3,0.4,0.5,0.2l2.4-2.6
		C25.7,16.2,25.7,16,25.6,15.9z"/>
	<path id="XMLID_20_" class="st1" d="M7,15.9l2.4-2.2c0.2-0.2,0.5,0,0.5,0.2v4.9c0,0.3-0.3,0.4-0.5,0.2L7,16.3
		C6.9,16.2,6.9,16,7,15.9z"/>
</g>
</svg>
