<?xml version="1.0" encoding="utf-8"?>
<!-- Generator: Adobe Illustrator 19.0.0, SVG Export Plug-In . SVG Version: 6.00 Build 0)  -->
<svg version="1.1" id="Layer_1" xmlns="http://www.w3.org/2000/svg" xmlns:xlink="http://www.w3.org/1999/xlink" x="0px" y="0px"
	 viewBox="0 0 32 32" style="enable-background:new 0 0 32 32;" xml:space="preserve">
<style type="text/css">
	.st0{fill:#231F20;}
</style>
<g id="XMLID_5_">
	<path id="XMLID_13_" d="M24.4,18.4c-1.3,0-2.4-0.2-2.4-2.4c0-2.1,1.1-2.4,2.4-2.4s3.9,1.5,3.9,2.4C28.4,16.8,25.7,18.4,24.4,18.4z"
		/>
	<path id="XMLID_7_" class="st0" d="M32,16c0-8.8-7.2-16-16-16C7.2,0,0,7.2,0,16c0,8.8,7.2,16,16,16C24.8,32,32,24.8,32,16z M16,30
		C8.3,30,2,23.7,2,16C2,8.3,8.3,2,16,2c7.7,0,14,6.3,14,14C30,23.7,23.7,30,16,30z"/>
</g>
</svg>
