<?xml version="1.0" encoding="utf-8"?>
<!-- Generator: Adobe Illustrator 19.0.0, SVG Export Plug-In . SVG Version: 6.00 Build 0)  -->
<svg version="1.1" id="Layer_1" xmlns="http://www.w3.org/2000/svg" xmlns:xlink="http://www.w3.org/1999/xlink" x="0px" y="0px"
	 viewBox="0 0 32 32" style="enable-background:new 0 0 32 32;" xml:space="preserve">
<style type="text/css">
	.st0{fill:#231F20;}
</style>
<g id="XMLID_73_">
	<path id="XMLID_146_" d="M7.6,13.6c1.3,0,2.4,0.2,2.4,2.4c0,2.1-1.1,2.4-2.4,2.4S3.6,16.9,3.6,16C3.6,15.2,6.3,13.6,7.6,13.6z"/>
	<path id="XMLID_93_" class="st0" d="M0,16c0,8.8,7.2,16,16,16c8.8,0,16-7.2,16-16S24.8,0,16,0C7.2,0,0,7.2,0,16z M16,2
		c7.7,0,14,6.3,14,14c0,7.7-6.3,14-14,14C8.3,30,2,23.7,2,16C2,8.3,8.3,2,16,2z"/>
	<path id="XMLID_88_" d="M24.4,18.4c-1.3,0-2.4-0.2-2.4-2.4c0-2.1,1.1-2.4,2.4-2.4c1.3,0,3.9,1.5,3.9,2.4
		C28.4,16.8,25.7,18.4,24.4,18.4z"/>
</g>
</svg>
