<?xml version="1.0" encoding="utf-8"?>
<!-- Generator: Adobe Illustrator 19.0.0, SVG Export Plug-In . SVG Version: 6.00 Build 0)  -->
<svg version="1.1" id="Layer_1" xmlns="http://www.w3.org/2000/svg" xmlns:xlink="http://www.w3.org/1999/xlink" x="0px" y="0px"
	 viewBox="0 0 32 32" style="enable-background:new 0 0 32 32;" xml:space="preserve">
<style type="text/css">
	.st0{fill:#231F20;}
</style>
<g id="XMLID_5_">
	<path id="XMLID_13_" d="M18.4,7.6c0,1.3-0.2,2.4-2.4,2.4c-2.1,0-2.4-1.1-2.4-2.4s1.5-3.9,2.4-3.9C16.8,3.6,18.4,6.3,18.4,7.6z"/>
	<path id="XMLID_7_" class="st0" d="M16,0C7.2,0,0,7.2,0,16c0,8.8,7.2,16,16,16s16-7.2,16-16C32,7.2,24.8,0,16,0z M30,16
		c0,7.7-6.3,14-14,14C8.3,30,2,23.7,2,16C2,8.3,8.3,2,16,2C23.7,2,30,8.3,30,16z"/>
</g>
</svg>
