<?xml version="1.0" encoding="utf-8"?>
<!-- Generator: Adobe Illustrator 19.0.0, SVG Export Plug-In . SVG Version: 6.00 Build 0)  -->
<svg version="1.1" id="Layer_1" xmlns="http://www.w3.org/2000/svg" xmlns:xlink="http://www.w3.org/1999/xlink" x="0px" y="0px"
	 viewBox="0 0 32 32" style="enable-background:new 0 0 32 32;" xml:space="preserve">
<style type="text/css">
	.st0{fill:#231F20;}
</style>
<g id="XMLID_5_">
	<path id="XMLID_13_" d="M13.6,24.4c0-1.3,0.2-2.4,2.4-2.4c2.1,0,2.4,1.1,2.4,2.4s-1.5,3.9-2.4,3.9C15.2,28.4,13.6,25.7,13.6,24.4z"
		/>
	<path id="XMLID_7_" class="st0" d="M16,32c8.8,0,16-7.2,16-16c0-8.8-7.2-16-16-16C7.2,0,0,7.2,0,16C0,24.8,7.2,32,16,32z M2,16
		C2,8.3,8.3,2,16,2c7.7,0,14,6.3,14,14c0,7.7-6.3,14-14,14C8.3,30,2,23.7,2,16z"/>
</g>
</svg>
