<?xml version="1.0" encoding="utf-8"?>
<!-- Generator: Adobe Illustrator 19.0.0, SVG Export Plug-In . SVG Version: 6.00 Build 0)  -->
<svg version="1.1" id="Layer_1" xmlns="http://www.w3.org/2000/svg" xmlns:xlink="http://www.w3.org/1999/xlink" x="0px" y="0px"
	 viewBox="0 0 32 32" style="enable-background:new 0 0 32 32;" xml:space="preserve">
<style type="text/css">
	.st0{fill:#FFFFFF;}
</style>
<g id="XMLID_1_">
	<polygon id="XMLID_2_" class="st0" points="31.5,20.4 31.3,23.1 29.2,25 26,25.7 4.4,25.7 1.8,24.5 0.6,22.1 0.6,19.3 30.4,19.1 	
		"/>
	<g id="XMLID_59_">
		<g id="XMLID_110_">
			<path id="XMLID_135_" d="M32.1,10c0-2.2-1.8-4.1-4.1-4.1H3.9c-2.2,0-4.1,1.8-4.1,4.1l0.1,11.5c0,2.5,2.1,4.6,4.6,4.6h23
				c2.5,0,4.6-2.3,4.6-4.8V10z M31,21.5c0,1.9-1.6,3.5-3.5,3.5h-23C2.6,25,1,23.4,1,21.5v-1.1c0.7,0.8,1.8,1.3,3,1.3h24.1
				c1.2,0,2.2-0.5,3-1.3V21.5z"/>
		</g>
		<g id="XMLID_92_">
			<polygon id="XMLID_130_" class="st0" points="12.2,9.3 10.9,9.3 10.9,17 15.8,17 15.8,15.8 12.2,15.8 			"/>
			<path id="XMLID_131_" class="st0" d="M17.9,15.8c0.1-0.1,0.1-0.1,0.2-0.2c0.1-0.2,0.5-0.5,1-0.9c0.7-0.6,1.1-1,1.4-1.3
				c0.3-0.3,0.5-0.6,0.6-0.9c0.1-0.3,0.2-0.6,0.2-0.9c0-0.6-0.2-1.2-0.7-1.6c-0.4-0.4-1-0.6-1.8-0.6c-0.7,0-1.3,0.2-1.8,0.6
				c-0.4,0.4-0.7,1-0.8,1.7l0,0.2l1.3,0.1l0-0.2c0-0.4,0.1-0.7,0.3-1c0.2-0.2,0.5-0.3,0.9-0.3c0.4,0,0.7,0.1,0.9,0.3
				c0.2,0.2,0.3,0.5,0.3,0.8c0,0.3-0.1,0.6-0.4,1c-0.3,0.4-0.8,0.9-1.6,1.5c-0.5,0.4-0.9,0.8-1.2,1.1c-0.3,0.3-0.5,0.7-0.6,1
				c-0.1,0.2-0.1,0.5-0.1,0.7l0,0.2h5.2v-1.2H17.9z"/>
		</g>
	</g>
</g>
</svg>
