<?xml version="1.0" encoding="utf-8"?>
<!-- Generator: Adobe Illustrator 19.0.0, SVG Export Plug-In . SVG Version: 6.00 Build 0)  -->
<svg version="1.1" id="Layer_1" xmlns="http://www.w3.org/2000/svg" xmlns:xlink="http://www.w3.org/1999/xlink" x="0px" y="0px"
	 viewBox="0 0 32 32" style="enable-background:new 0 0 32 32;" xml:space="preserve">
<style type="text/css">
	.st0{fill:#231F20;}
</style>
<g id="XMLID_159_">
	<path id="XMLID_163_" d="M21.5,7.9c-2.2,0-4,1.8-4,4s1.8,4,4,4s4-1.8,4-4S23.7,7.9,21.5,7.9z M21.5,14.8c-1.7,0-3-1.3-3-3
		c0-1.7,1.3-3,3-3c1.7,0,3,1.3,3,3C24.5,13.5,23.1,14.8,21.5,14.8z"/>
	<path id="XMLID_162_" class="st0" d="M11.3,18.6c-0.4,0-0.8,0.1-1.2,0.2l2.1,0.8c0.7,0.3,1.2,0.9,1.4,1.6c0.1,0.2,0.1,0.4,0.1,0.6
		c0,0.7-0.3,1.4-0.9,1.8c0,0,0,0-0.1,0.1c0,0,0,0,0,0c-0.7,0.5-1.6,0.7-2.4,0.3l-2-0.8c0.5,1.1,1.7,1.9,3,1.9c1.8,0,3.3-1.5,3.3-3.3
		C14.6,20.1,13.2,18.6,11.3,18.6z"/>
	<path id="XMLID_160_" class="st0" d="M16,0C7.6,0,0.7,6.5,0,14.7l8.7,3.6c0.7-0.5,1.6-0.8,2.6-0.8c0.1,0,0.1,0,0.2,0l0,0l4-5.6
		c0-3.3,2.7-6,6-6s6,2.7,6,6s-2.7,6-6,6c-0.1,0-0.2,0-0.2,0l0,0l-5.5,3.9c0,0.1,0,0.1,0,0.2c0,2.5-2,4.5-4.5,4.5
		c-2.2,0-4-1.6-4.4-3.7l-6.4-2.6C2.3,27,8.6,32,16,32c8.8,0,16-7.2,16-16S24.8,0,16,0z"/>
</g>
</svg>
