<?xml version="1.0" encoding="utf-8"?>
<!-- Generator: Adobe Illustrator 19.0.0, SVG Export Plug-In . SVG Version: 6.00 Build 0)  -->
<svg version="1.1" id="Layer_1" xmlns="http://www.w3.org/2000/svg" xmlns:xlink="http://www.w3.org/1999/xlink" x="0px" y="0px"
	 viewBox="0 0 32 32" style="enable-background:new 0 0 32 32;" xml:space="preserve">
<style type="text/css">
	.st0{fill:#231F20;}
</style>
<g id="XMLID_87_">
	<path id="XMLID_89_" d="M17.1,8.1h-2.6L7.3,23.9h2.6l2-4.8h7.7l2.2,4.8h2.8L17.1,8.1z M12.7,17.4l2-4.6c0.4-1,0.8-2,1-3
		c0.3,0.9,0.7,1.9,1.3,3.3l1.9,4.4H12.7z"/>
	<path id="XMLID_96_" class="st0" d="M16,0C7.2,0,0,7.2,0,16c0,8.8,7.2,16,16,16s16-7.2,16-16C32,7.2,24.8,0,16,0z M30,16
		c0,7.7-6.3,14-14,14S2,23.7,2,16C2,8.3,8.3,2,16,2S30,8.3,30,16z"/>
</g>
</svg>
