<?xml version="1.0" encoding="utf-8"?>
<!-- Generator: Adobe Illustrator 19.0.0, SVG Export Plug-In . SVG Version: 6.00 Build 0)  -->
<svg version="1.1" id="Layer_1" xmlns="http://www.w3.org/2000/svg" xmlns:xlink="http://www.w3.org/1999/xlink" x="0px" y="0px"
	 viewBox="0 0 32 32" style="enable-background:new 0 0 32 32;" xml:space="preserve">
<style type="text/css">
	.st0{fill:#FFFFFF;}
</style>
<g id="XMLID_99_">
	<path id="XMLID_142_" d="M2.8,18.7h9.3c0.7,0,1.2,0.5,1.2,1.2v9.3c0,1.5,1.2,2.7,2.6,2.8c0.7,0,1.4-0.3,1.9-0.8
		c0.5-0.5,0.8-1.2,0.8-1.9v-9.4c0-0.7,0.5-1.2,1.2-1.2h9.3c1.5,0,2.7-1.2,2.8-2.6c0-0.7-0.3-1.4-0.8-1.9c-0.5-0.5-1.2-0.8-1.9-0.8
		h-9.4c-0.7,0-1.2-0.5-1.2-1.2V2.8c0-1.5-1.2-2.7-2.6-2.8H16c-0.7,0-1.4,0.3-1.9,0.8c-0.5,0.5-0.8,1.2-0.8,1.9v9.4
		c0,0.7-0.5,1.2-1.2,1.2H2.7c-0.7,0-1.4,0.3-1.9,0.8C0.3,14.6,0,15.3,0,16.1C0,17.5,1.3,18.7,2.8,18.7z"/>
	<path id="XMLID_100_" class="st0" d="M14.8,28.4c0-0.6,0.1-1.2,1.2-1.2c1,0,1.2,0.5,1.2,1.2s-0.7,2-1.2,2
		C15.6,30.3,14.8,29,14.8,28.4z"/>
</g>
</svg>
