<?xml version="1.0" encoding="utf-8"?>
<!-- Generator: Adobe Illustrator 19.0.0, SVG Export Plug-In . SVG Version: 6.00 Build 0)  -->
<svg version="1.1" id="Layer_1" xmlns="http://www.w3.org/2000/svg" xmlns:xlink="http://www.w3.org/1999/xlink" x="0px" y="0px"
	 viewBox="0 0 32 32" style="enable-background:new 0 0 32 32;" xml:space="preserve">
<style type="text/css">
	.st0{fill:#FFFFFF;}
</style>
<g id="XMLID_99_">
	<path id="XMLID_142_" d="M29.2,13.3h-9.3c-0.7,0-1.2-0.5-1.2-1.2V2.8c0-1.5-1.2-2.7-2.6-2.8c-0.7,0-1.4,0.3-1.9,0.8
		c-0.5,0.5-0.8,1.2-0.8,1.9v9.4c0,0.7-0.5,1.2-1.2,1.2H2.8c-1.5,0-2.7,1.2-2.8,2.6c0,0.7,0.3,1.4,0.8,1.9c0.5,0.5,1.2,0.8,1.9,0.8
		h9.4c0.7,0,1.2,0.5,1.2,1.2v9.3c0,1.5,1.2,2.7,2.6,2.8H16c0.7,0,1.4-0.3,1.9-0.8c0.5-0.5,0.8-1.2,0.8-1.9v-9.4
		c0-0.7,0.5-1.2,1.2-1.2h9.4c0.7,0,1.4-0.3,1.9-0.8c0.5-0.5,0.8-1.2,0.8-1.9C32,14.5,30.7,13.3,29.2,13.3z"/>
	<path id="XMLID_100_" class="st0" d="M17.2,3.6c0,0.6-0.1,1.2-1.2,1.2c-1,0-1.2-0.5-1.2-1.2s0.7-2,1.2-2C16.4,1.7,17.2,3,17.2,3.6z
		"/>
</g>
</svg>
