<?xml version="1.0" encoding="utf-8"?>
<!-- Generator: Adobe Illustrator 19.0.0, SVG Export Plug-In . SVG Version: 6.00 Build 0)  -->
<svg version="1.1" id="Layer_1" xmlns="http://www.w3.org/2000/svg" xmlns:xlink="http://www.w3.org/1999/xlink" x="0px" y="0px"
	 viewBox="0 0 32 32" style="enable-background:new 0 0 32 32;" xml:space="preserve">
<style type="text/css">
	.st0{fill:#FFFFFF;}
</style>
<g id="XMLID_99_">
	<path id="XMLID_142_" d="M13.3,2.8v9.3c0,0.7-0.5,1.2-1.2,1.2H2.8c-1.5,0-2.7,1.2-2.8,2.6c0,0.7,0.3,1.4,0.8,1.9
		c0.5,0.5,1.2,0.8,1.9,0.8h9.4c0.7,0,1.2,0.5,1.2,1.2v9.3c0,1.5,1.2,2.7,2.6,2.8c0.7,0,1.4-0.3,1.9-0.8c0.5-0.5,0.8-1.2,0.8-1.9
		v-9.4c0-0.7,0.5-1.2,1.2-1.2h9.3c1.5,0,2.7-1.2,2.8-2.6V16c0-0.7-0.3-1.4-0.8-1.9c-0.5-0.5-1.2-0.8-1.9-0.8h-9.4
		c-0.7,0-1.2-0.5-1.2-1.2V2.7c0-0.7-0.3-1.4-0.8-1.9C17.4,0.3,16.7,0,15.9,0C14.5,0,13.3,1.3,13.3,2.8z"/>
	<path id="XMLID_100_" class="st0" d="M3.6,14.8c0.6,0,1.2,0.1,1.2,1.2c0,1-0.5,1.2-1.2,1.2s-2-0.7-2-1.2C1.7,15.6,3,14.8,3.6,14.8z
		"/>
</g>
</svg>
